<svg width="18" height="18" viewBox="0 0 18 18" fill="none" xmlns="http://www.w3.org/2000/svg">
<path d="M9 12.4097L5.15768 8.56733L6.10628 7.59128L8.325 9.81V2.25H9.675V9.81L11.8937 7.59128L12.8423 8.56733L9 12.4097ZM3.87698 15.75C3.42232 15.75 3.0375 15.5925 2.7225 15.2775C2.4075 14.9625 2.25 14.5777 2.25 14.123V11.6827H3.6V14.123C3.6 14.1923 3.62888 14.2558 3.68663 14.3134C3.74423 14.3711 3.80768 14.4 3.87698 14.4H14.123C14.1923 14.4 14.2558 14.3711 14.3134 14.3134C14.3711 14.2558 14.4 14.1923 14.4 14.123V11.6827H15.75V14.123C15.75 14.5777 15.5925 14.9625 15.2775 15.2775C14.9625 15.5925 14.5777 15.75 14.123 15.75H3.87698Z" fill="black"/>
</svg>
