<svg width="24" height="24" viewBox="0 0 24 24" fill="none" xmlns="http://www.w3.org/2000/svg">
<path d="M12.0049 22C10.6223 22 9.32222 21.7376 8.1046 21.2129C6.88697 20.6882 5.82787 19.9761 4.9273 19.0764C4.02653 18.1768 3.31351 17.1191 2.78822 15.9032C2.26274 14.6871 2 13.3876 2 12.0049C2 10.6223 2.26236 9.32222 2.78707 8.1046C3.31178 6.88697 4.02395 5.82787 4.92356 4.9273C5.82318 4.02653 6.88094 3.31351 8.09684 2.78822C9.31293 2.26274 10.6124 2 11.9951 2C13.3777 2 14.6778 2.26236 15.8954 2.78707C17.113 3.31178 18.1721 4.02395 19.0727 4.92356C19.9735 5.82318 20.6865 6.88094 21.2118 8.09684C21.7373 9.31293 22 10.6124 22 11.9951C22 13.3777 21.7376 14.6778 21.2129 15.8954C20.6882 17.113 19.9761 18.1721 19.0764 19.0727C18.1768 19.9735 17.1191 20.6865 15.9032 21.2118C14.6871 21.7373 13.3876 22 12.0049 22ZM12 21.1954C14.567 21.1954 16.7414 20.3046 18.523 18.523C20.3046 16.7414 21.1954 14.567 21.1954 12C21.1954 9.43295 20.3046 7.25862 18.523 5.47701C16.7414 3.6954 14.567 2.8046 12 2.8046C9.43295 2.8046 7.25862 3.6954 5.47701 5.47701C3.6954 7.25862 2.8046 9.43295 2.8046 12C2.8046 14.567 3.6954 16.7414 5.47701 18.523C7.25862 20.3046 9.43295 21.1954 12 21.1954Z" fill="black"/>
<path d="M9.306 16.8088C9.17279 16.892 9 16.7962 9 16.6391V7.36085C9 7.20376 9.17279 7.10799 9.306 7.19125L16.7286 11.8304C16.854 11.9087 16.854 12.0913 16.7286 12.1696L9.306 16.8088ZM10.253 14.3871C10.253 14.5441 10.4257 14.6399 10.5589 14.5567L14.383 12.1697C14.5084 12.0913 14.5084 11.9087 14.383 11.8303L10.5589 9.44325C10.4257 9.3601 10.253 9.45588 10.253 9.61291V14.3871Z" fill="black"/>
</svg>
