<svg width="20" height="20" viewBox="0 0 20 20" fill="none" xmlns="http://www.w3.org/2000/svg">
<path d="M10.0044 18.3334C8.85226 18.3334 7.76884 18.1148 6.75416 17.6775C5.73947 17.2403 4.85689 16.6468 4.10641 15.8971C3.35577 15.1474 2.76158 14.266 2.32384 13.2527C1.88594 12.2393 1.66699 11.1565 1.66699 10.0042C1.66699 8.85201 1.88562 7.7686 2.32288 6.75391C2.76014 5.73923 3.35361 4.85664 4.10329 4.10616C4.85298 3.35553 5.73444 2.76134 6.74769 2.3236C7.7611 1.8857 8.84396 1.66675 9.99625 1.66675C11.1484 1.66675 12.2318 1.88538 13.2465 2.32264C14.2612 2.7599 15.1438 3.35337 15.8942 4.10305C16.6449 4.85273 17.2391 5.7342 17.6768 6.74745C18.1147 7.76086 18.3337 8.84371 18.3337 9.99601C18.3337 11.1481 18.115 12.2316 17.6778 13.2463C17.2405 14.2609 16.647 15.1435 15.8974 15.894C15.1477 16.6446 14.2662 17.2388 13.253 17.6766C12.2395 18.1145 11.1567 18.3334 10.0044 18.3334ZM10.0003 17.6629C12.1395 17.6629 13.9515 16.9206 15.4361 15.4359C16.9208 13.9512 17.6632 12.1393 17.6632 10.0001C17.6632 7.86087 16.9208 6.04893 15.4361 4.56426C13.9515 3.07958 12.1395 2.33725 10.0003 2.33725C7.86112 2.33725 6.04918 3.07958 4.5645 4.56426C3.07983 6.04893 2.33749 7.86087 2.33749 10.0001C2.33749 12.1393 3.07983 13.9512 4.5645 15.4359C6.04918 16.9206 7.86112 17.6629 10.0003 17.6629Z" fill="#666666"/>
<path d="M8.49693 14.1667L5 10.6117L5.87423 9.72288L8.49693 12.3892L14.1258 6.66675L15 7.55552L8.49693 14.1667Z" fill="#666666"/>
</svg>
