<svg width="15" height="12" viewBox="0 0 15 12" fill="none" xmlns="http://www.w3.org/2000/svg">
<path d="M1.42717 11.6667C1.02836 11.6667 0.690789 11.5306 0.414474 11.2583C0.138158 10.9861 0 10.6535 0 10.2606V1.40603C0 1.01312 0.138158 0.680556 0.414474 0.408333C0.690789 0.136111 1.02836 0 1.42717 0H13.5728C13.9716 0 14.3092 0.136111 14.5855 0.408333C14.8618 0.680556 15 1.01312 15 1.40603V10.2606C15 10.6535 14.8618 10.9861 14.5855 11.2583C14.3092 11.5306 13.9716 11.6667 13.5728 11.6667H1.42717ZM7.5 6.26714L1.18421 2.28842V10.2606C1.18421 10.3305 1.20697 10.3879 1.2525 10.4327C1.29803 10.4776 1.35625 10.5 1.42717 10.5H13.5728C13.6437 10.5 13.702 10.4776 13.7475 10.4327C13.793 10.3879 13.8158 10.3305 13.8158 10.2606V2.28842L7.5 6.26714ZM7.5 5.05556L13.6944 1.16667H1.30559L7.5 5.05556ZM1.18421 2.28842V1.16667V10.2606C1.18421 10.3305 1.20697 10.3879 1.2525 10.4327C1.29803 10.4776 1.35625 10.5 1.42717 10.5H1.18421V2.28842Z" fill="white"/>
</svg>
