<svg width="20" height="20" viewBox="0 0 20 20" fill="none" xmlns="http://www.w3.org/2000/svg">
<path fill-rule="evenodd" clip-rule="evenodd" d="M14.3008 0.0234544H14.3135V0.024431C15.5144 0.0716711 16.7608 0.706119 17.708 1.67482C18.6588 2.64735 19.3381 3.98629 19.3662 5.47951V5.48634L19.3633 13.9063V13.9072C19.3597 15.2072 18.7718 16.5287 17.8418 17.5391C16.91 18.5513 15.6102 19.2781 14.1543 19.3526L14.1455 19.3535H14.1367L5.56836 19.3692H5.55762C2.63925 19.2881 0.115111 16.906 0.00585938 14.0899V14.0762L0 9.5674C0.00151719 7.70311 0.0102242 5.83804 0.0371094 5.05568V5.04201H0.0380859C0.139469 3.66024 0.856955 2.4004 1.84082 1.49123C2.82336 0.583512 4.10321 -0.00363195 5.36426 1.69101e-05L14.3008 0.0234544ZM5.3623 0.699236C4.31337 0.696201 3.1975 1.191 2.31641 2.0049C1.43685 2.81757 0.822314 3.92099 0.736328 5.09377C0.683854 6.65855 0.701979 12.4772 0.706055 14.0625L0.720703 14.2891C0.937698 16.6147 3.08072 18.5982 5.57617 18.668L14.1182 18.6533C15.36 18.5899 16.4967 17.9676 17.3271 17.0654C18.1591 16.1616 18.6608 15.003 18.6641 13.9063L18.666 5.49318L18.6553 5.25295C18.5678 4.06108 18.0029 2.97718 17.208 2.16408C16.3567 1.29336 15.2706 0.762431 14.2861 0.72365V0.722673L5.3623 0.699236ZM9.76172 4.55861C12.5409 4.60921 14.8287 6.92213 14.8203 9.71877C14.8117 12.5444 12.5568 14.7715 9.75684 14.8203C6.87691 14.8704 4.54609 12.5409 4.54883 9.68166L4.5498 9.33205H4.56543C4.75748 6.6643 7.01007 4.56687 9.75391 4.55861H9.76172ZM9.75098 5.25881C7.26514 5.26895 5.26 7.24909 5.25 9.68361L5.24902 9.71584C5.26479 12.1728 7.27258 14.1643 9.74512 14.1211C12.1723 14.0786 14.1127 12.1532 14.1201 9.71681C14.1274 7.30594 12.1496 5.30357 9.75098 5.25881ZM14.9346 4.60158C15.2661 4.59748 15.5228 4.87994 15.5156 5.20412C15.5084 5.5169 15.2559 5.76433 14.9307 5.76759C14.6126 5.7707 14.3652 5.51786 14.3496 5.20705C14.3322 4.87673 14.6114 4.60676 14.9346 4.60158Z" fill="black"/>
</svg>
