<svg width="20" height="20" viewBox="0 0 20 20" fill="none" xmlns="http://www.w3.org/2000/svg">
<path d="M4.57051 18.9845L0.725994 18.9876C0.725994 14.8076 0.724416 10.4005 0.722834 6.17635H4.59739L4.56906 18.9231M4.57051 18.9845H4.56893L4.56906 18.9231M4.57051 18.9845L4.56906 18.9231M6.9933 18.986H10.7271L10.7034 13.183C10.7018 11.2759 10.9533 9.73486 12.9554 9.66861C15.0097 9.60078 15.2058 11.3343 15.2058 13.183L15.1868 18.986H18.9459C18.9127 16.344 19.0266 13.6404 19.0155 10.9904C19.0013 7.40984 16.55 5.61954 12.9506 6.27415C11.9575 6.46501 11.1067 7.12749 10.7065 7.63067L10.6986 6.1732L6.96957 6.18424L6.99171 18.9845L6.9933 18.986ZM2.64589 4.92078C3.91421 4.92078 4.94216 3.8955 4.94216 2.63519C4.94216 1.37489 3.91421 0.349609 2.64589 0.349609C1.37756 0.349609 0.349609 1.37489 0.349609 2.63519C0.349609 3.8955 1.37756 4.92078 2.64589 4.92078Z" stroke="black" stroke-width="0.7" stroke-miterlimit="22.93"/>
</svg>
