<svg width="20" height="20" viewBox="0 0 20 20" fill="none" xmlns="http://www.w3.org/2000/svg">
<path d="M10.004 18.3337C8.85189 18.3337 7.76848 18.115 6.75379 17.6778C5.7391 17.2405 4.85652 16.647 4.10604 15.8974C3.3554 15.1477 2.76121 14.2662 2.32347 13.253C1.88558 12.2395 1.66663 11.1567 1.66663 10.0044C1.66663 8.85226 1.88526 7.76884 2.32252 6.75416C2.75978 5.73947 3.35325 4.85689 4.10293 4.10641C4.85261 3.35577 5.73408 2.76158 6.74733 2.32384C7.76074 1.88594 8.84359 1.66699 9.99589 1.66699C11.148 1.66699 12.2314 1.88562 13.2461 2.32288C14.2608 2.76014 15.1434 3.35361 15.8939 4.10329C16.6445 4.85298 17.2387 5.73444 17.6764 6.74769C18.1143 7.7611 18.3333 8.84396 18.3333 9.99625C18.3333 11.1484 18.1147 12.2318 17.6774 13.2465C17.2401 14.2612 16.6467 15.1438 15.897 15.8942C15.1473 16.6449 14.2658 17.2391 13.2526 17.6768C12.2392 18.1147 11.1563 18.3337 10.004 18.3337ZM9.99996 17.6632C12.1392 17.6632 13.9511 16.9208 15.4358 15.4361C16.9205 13.9515 17.6628 12.1395 17.6628 10.0003C17.6628 7.86112 16.9205 6.04918 15.4358 4.5645C13.9511 3.07983 12.1392 2.33749 9.99996 2.33749C7.86075 2.33749 6.04881 3.07983 4.56414 4.5645C3.07946 6.04918 2.33712 7.86112 2.33712 10.0003C2.33712 12.1395 3.07946 13.9515 4.56414 15.4361C6.04881 16.9208 7.86075 17.6632 9.99996 17.6632Z" fill="black"/>
<path d="M9.375 11.25V5.625H10.625V11.25H9.375ZM9.375 14.375V13.125H10.625V14.375H9.375Z" fill="black"/>
</svg>
