<svg width="22" height="16" viewBox="0 0 22 16" fill="none" xmlns="http://www.w3.org/2000/svg">
<path d="M8.75639 10.9675C8.75639 8.9734 8.75639 6.66352 8.75639 4.71906L14.2694 7.71469C14.1251 7.80191 8.84061 10.9209 8.7579 10.969L8.75639 10.9675ZM3.04184 0.851213C1.82374 1.05273 0.981593 1.76253 0.731958 3.00771C0.289832 5.21232 0.0868156 11.0502 0.934976 13.1871C1.41319 14.3902 2.47339 14.724 3.72157 14.8654C7.47062 15.1677 14.9251 15.3782 18.6937 14.7421C19.9389 14.5646 20.7103 13.7992 20.9449 12.5645C21.4126 10.1058 21.5134 5.87551 21.0427 3.33704C20.7254 1.78058 19.8592 1.07228 18.5854 0.798579C15.5281 0.179001 6.44651 0.204567 3.04184 0.851213Z" stroke="black" stroke-width="0.7" stroke-miterlimit="22.93"/>
</svg>
